<?xml version="1.0" encoding="UTF-8"?>
<svg xmlns="http://www.w3.org/2000/svg" xmlns:xlink="http://www.w3.org/1999/xlink" viewBox="0 0 50 50" version="1.1" fill="#000000"><g id="surface1" fill="#000000"><path style=" " d="M 27.894531 3.007813 C 27.425781 2.976563 26.945313 3.035156 26.480469 3.195313 C 24.503906 3.824219 23.566406 5.925781 24.191406 7.820313 L 25.835938 13.144531 L 18.59375 15.621094 L 17 10.507813 C 16.378906 8.511719 14.296875 7.5625 12.425781 8.195313 C 10.453125 8.824219 9.519531 10.925781 10.140625 12.820313 L 11.746094 17.960938 L 6.382813 19.792969 C 4.578125 20.429688 3.574219 22.546875 4.175781 24.453125 C 4.679688 26.046875 6.082031 27 7.488281 27 C 7.890625 27 8.289063 26.894531 8.59375 26.785156 L 13.921875 24.964844 L 16.066406 31.84375 L 10.390625 33.789063 C 8.484375 34.425781 7.582031 36.546875 8.183594 38.453125 C 8.6875 40.046875 9.988281 41 11.492188 41 C 11.792969 41 12.195313 40.894531 12.59375 40.785156 L 18.253906 38.875 L 20 44.476563 C 20.519531 45.949219 21.976563 47 23.429688 47 C 23.84375 47 24.261719 46.894531 24.574219 46.789063 C 26.441406 46.15625 27.480469 44.054688 26.859375 42.160156 L 25.113281 36.558594 L 32.3125 34.125 L 33.960938 39.476563 C 34.480469 40.949219 35.933594 42 37.390625 42 C 37.804688 42 38.21875 41.894531 38.53125 41.789063 C 40.402344 41.15625 41.441406 39.054688 40.816406 37.160156 L 39.167969 31.8125 L 43.671875 30.289063 C 45.476563 29.546875 46.476563 27.425781 45.777344 25.515625 C 45.171875 23.609375 43.167969 22.550781 41.363281 23.1875 L 36.96875 24.6875 L 34.847656 17.8125 L 39.605469 16.1875 C 41.511719 15.554688 42.417969 13.433594 41.8125 11.527344 C 41.210938 9.511719 39.207031 8.558594 37.398438 9.195313 L 32.6875 10.808594 L 31.050781 5.507813 C 30.582031 4.007813 29.296875 3.101563 27.894531 3.007813 Z M 28 20.15625 L 30.121094 27.035156 L 22.917969 29.5 L 20.773438 22.625 Z " fill="#000000"/></g></svg>
