<?xml version="1.0" encoding="UTF-8"?>
<svg xmlns="http://www.w3.org/2000/svg" xmlns:xlink="http://www.w3.org/1999/xlink" viewBox="0 0 50 50" version="1.1" fill="#000000"><g id="surface1" fill="#000000"><path style=" " d="M 40 0 L 10 0 C 4.484375 0 0 4.484375 0 10 L 0 40 C 0 45.515625 4.484375 50 10 50 L 40 50 C 45.515625 50 50 45.515625 50 40 L 50 10 C 50 4.484375 45.515625 0 40 0 Z M 39 17 L 36 17 C 33.855469 17 33 17.503906 33 19 L 33 22 L 39 22 L 38 28 L 33 28 L 33 48 L 26 48 L 26 28 L 23 28 L 23 22 L 26 22 L 26 19 C 26 14.324219 27.582031 11 33 11 C 35.902344 11 39 12 39 12 Z " fill="#000000"/></g></svg>
